<svg xmlns="http://www.w3.org/2000/svg" viewBox="0 0 120 120" fill="none">
  <rect width="120" height="120" rx="16" fill="#06040a"/>
  <rect x="2" y="2" width="116" height="116" rx="14" stroke="#c9a84c" stroke-width="2" fill="none"/>
  <!-- Fork and knife icon -->
  <g transform="translate(30, 18)" fill="#c9a84c">
    <!-- Fork -->
    <path d="M12 8v12h-2V8c0-4 1-7 1-7s1 3 1 7zm-4 0v12H6V8c0-4 1-7 1-7s1 3 1 7zm8 0v12h-2V8c0-4 1-7 1-7s1 3 1 7z"/>
    <rect x="5" y="18" width="12" height="2" rx="1"/>
    <rect x="9.5" y="18" width="3" height="42" rx="1.5"/>
    <!-- Knife -->
    <path d="M38 1c0 0 4 8 4 20v2h-3v37h-3V23h-3v-2c0-10 3-18 4-20h1z"/>
  </g>
  <!-- Text -->
  <text x="60" y="82" text-anchor="middle" fill="#c9a84c" font-family="serif" font-size="11" font-weight="600" letter-spacing="3">GRAND</text>
  <text x="60" y="98" text-anchor="middle" fill="#e8c97a" font-family="serif" font-size="8" font-weight="400" letter-spacing="4">MAISON</text>
  <!-- Decorative line -->
  <line x1="30" y1="86" x2="90" y2="86" stroke="#c9a84c" stroke-width="0.5" opacity="0.5"/>
</svg>
